<svg width="295.21998901367186px" height="122.6px" xmlns="http://www.w3.org/2000/svg" viewBox="102.39000549316407 13.700000000000003 295.21998901367186 122.6" style="background: rgba(0, 0, 0, 0) none repeat scroll 0% 0%;" preserveAspectRatio="xMidYMid"><defs><filter id="editing-extrude-glow"><feFlood flood-color="#333333" result="flood-1"></feFlood><feMorphology operator="erode" radius="1" in="SourceAlpha" result="erode"></feMorphology><feComposite operator="in" in="flood-1" in2="erode" result="comp1"></feComposite><feConvolveMatrix order="3,3" divisor="1" in="comp1" result="convolve" kernelMatrix="0 0 0 1 1 1 0 0 0"></feConvolveMatrix><feOffset dx="-3" dy="0" in="convolve" result="extrude"></feOffset><feComposite operator="in" in="flood-1" in2="extrude" result="comp-extrude"></feComposite><feFlood flood-color="#000000" result="flood-2"></feFlood><feComposite operator="in" in="flood-2" in2="SourceAlpha" result="comp2"></feComposite><feMorphology operator="dilate" radius="1" in="comp2" result="dilate"></feMorphology><feOffset dx="-4.5" dy="0" in="dilate" result="offset"></feOffset><feGaussianBlur in="offset" stdDeviation="5.8" result="blur"></feGaussianBlur><feComponentTransfer in="blur" result="shadow"><feFuncA type="linear" slope="0.8" intercept="-0.2"></feFuncA></feComponentTransfer><feMerge><feMergeNode in="shadow"></feMergeNode><feMergeNode in="comp-extrude"></feMergeNode><feMergeNode in="SourceGraphic"></feMergeNode></feMerge></filter></defs><g filter="url(#editing-extrude-glow)"><g transform="translate(153.07471132278442, 102.8700008392334)"><path d="M-6.98 8.83L-6.98 8.83L-6.98 8.83Q-3.71 8.45-1.66 4.22L-1.66 4.22L-1.66 4.22Q0.45-0.06 2.37-9.92L2.37-9.92L8.58-42.24L22.46-42.24L16.26-9.92L16.26-9.92Q13.89 2.62 9.98 7.55L9.98 7.55L9.98 7.55Q7.94 10.11 5.34 11.14L5.34 11.14L5.34 11.14Q2.75 12.16-0.06 12.16L-0.06 12.16L-0.06 12.16Q-2.88 12.16-4.70 11.14L-4.70 11.14L-4.70 11.14Q-6.53 10.11-6.98 8.83ZM24.83-15.62L24.83-15.62L24.83-15.62Q24.83-27.71 31.10-35.33L31.10-35.33L31.10-35.33Q37.76-43.58 49.34-43.58L49.34-43.58L49.34-43.58Q57.73-43.58 61.95-39.52L61.95-39.52L61.95-39.52Q66.18-35.46 66.18-26.88L66.18-26.88L66.18-26.88Q66.18-13.82 59.52-6.21L59.52-6.21L59.52-6.21Q52.93 1.28 41.86 1.28L41.86 1.28L41.86 1.28Q33.22 1.28 29.02-3.04L29.02-3.04L29.02-3.04Q24.83-7.36 24.83-15.62ZM41.66-28.86L41.66-28.86L41.66-28.86Q38.78-17.34 38.78-8.26L38.78-8.26L38.78-8.26Q38.78-6.08 39.52-4.67L39.52-4.67L39.52-4.67Q40.26-3.26 42.21-3.26L42.21-3.26L42.21-3.26Q44.16-3.26 45.38-4.19L45.38-4.19L45.38-4.19Q46.59-5.12 47.55-7.23L47.55-7.23L47.55-7.23Q49.09-10.69 50.53-18.02L50.53-18.02L50.53-18.02Q51.97-25.34 52.10-28.38L52.10-28.38L52.10-28.38Q52.22-31.42 52.22-33.73L52.22-33.73L52.22-33.73Q52.22-36.03 51.52-37.50L51.52-37.50L51.52-37.50Q50.82-38.98 48.93-38.98L48.93-38.98L48.93-38.98Q47.04-38.98 45.76-37.82L45.76-37.82L45.76-37.82Q43.39-35.65 41.66-28.86ZM94.27-29.57L94.27-29.57L94.27-29.57Q95.23-31.49 95.23-33.28L95.23-33.28L95.23-33.28Q95.23-35.07 95.04-36.06L95.04-36.06L95.04-36.06Q94.85-37.06 94.40-37.82L94.40-37.82L94.40-37.82Q93.44-39.49 91.52-39.49L91.52-39.49L91.52-39.49Q89.15-39.49 87.23-37.76L87.23-37.76L87.23-37.76Q85.18-35.97 85.18-33.15L85.18-33.15L85.18-33.15Q85.18-31.36 86.43-29.98L86.43-29.98L86.43-29.98Q87.68-28.61 89.60-27.33L89.60-27.33L89.60-27.33Q91.52-26.05 93.70-24.77L93.70-24.77L93.70-24.77Q95.87-23.49 97.79-21.95L97.79-21.95L97.79-21.95Q102.21-18.43 102.21-13.70L102.21-13.70L102.21-13.70Q102.21-10.50 100.51-7.78L100.51-7.78L100.51-7.78Q98.82-5.06 96.00-3.07L96.00-3.07L96.00-3.07Q89.86 1.28 81.73 1.28L81.73 1.28L81.73 1.28Q75.14 1.28 71.74-0.86L71.74-0.86L71.74-0.86Q68.35-3.01 68.35-6.27L68.35-6.27L68.35-6.27Q68.35-12.10 72.90-13.57L72.90-13.57L72.90-13.57Q74.18-14.02 76.13-14.02L76.13-14.02L76.13-14.02Q78.08-14.02 80.32-13.18L80.32-13.18L80.32-13.18Q79.30-10.56 79.30-8.19L79.30-8.19L79.30-8.19Q79.30-3.07 82.94-3.07L82.94-3.07L82.94-3.07Q85.31-3.07 87.26-4.80L87.26-4.80L87.26-4.80Q89.22-6.53 89.22-8.48L89.22-8.48L89.22-8.48Q89.22-10.43 87.97-11.84L87.97-11.84L87.97-11.84Q86.72-13.25 84.86-14.37L84.86-14.37L84.86-14.37Q83.01-15.49 80.86-16.58L80.86-16.58L80.86-16.58Q78.72-17.66 76.86-19.20L76.86-19.20L76.86-19.20Q72.51-22.72 72.51-28.35L72.51-28.35L72.51-28.35Q72.51-32 74.30-34.85L74.30-34.85L74.30-34.85Q76.10-37.70 78.98-39.62L78.98-39.62L78.98-39.62Q84.74-43.52 91.81-43.52L91.81-43.52L91.81-43.52Q98.88-43.52 102.30-41.41L102.30-41.41L102.30-41.41Q105.73-39.30 105.73-35.71L105.73-35.71L105.73-35.71Q105.73-32.58 103.30-30.59L103.30-30.59L103.30-30.59Q101.18-28.93 98.62-28.93L98.62-28.93L98.62-28.93Q96.06-28.93 94.27-29.57ZM130.94-4.80L130.94-4.80L130.94-4.80Q130.94-9.28 132.74-18.24L132.74-18.24L123.26-18.24L119.74 0L106.37 0L114.50-42.24L128.00-42.24L124.29-23.36L133.76-23.36L137.28-42.24L150.78-42.24L150.78-42.24Q149.89-37.50 148.74-32.19L148.74-32.19L146.56-21.76L146.56-21.76Q144.13-9.60 144.13-4.29L144.13-4.29L144.13-4.29Q144.13-2.11 144.83-0.90L144.83-0.90L144.83-0.90Q141.63 1.28 137.89 1.28L137.89 1.28L137.89 1.28Q134.14 1.28 132.54-0.51L132.54-0.51L132.54-0.51Q130.94-2.30 130.94-4.80ZM153.54-9.47L153.54-9.47L153.54-9.47Q153.54-11.97 154.18-15.17L154.18-15.17L159.36-42.24L173.50-42.24L168.38-14.98L168.38-14.98Q167.81-11.97 167.81-9.76L167.81-9.76L167.81-9.76Q167.81-7.55 168.74-6.40L168.74-6.40L168.74-6.40Q169.66-5.25 171.39-5.25L171.39-5.25L171.39-5.25Q173.12-5.25 174.21-5.70L174.21-5.70L174.21-5.70Q175.30-6.14 176.19-7.23L176.19-7.23L176.19-7.23Q177.92-9.41 179.01-14.98L179.01-14.98L184.19-42.24L193.86-42.24L188.74-15.04L188.74-15.04Q186.94-5.95 182.02-2.30L182.02-2.30L182.02-2.30Q177.22 1.28 167.74 1.28L167.74 1.28L167.74 1.28Q160.64 1.28 156.86-1.79L156.86-1.79L156.86-1.79Q153.54-4.48 153.54-9.47Z" fill="#eb6c6c"></path></g></g><style>text {
  font-size: 64px;
  font-family: Arial Black;
  dominant-baseline: central;
  text-anchor: middle;
}</style></svg>