<svg width="90%" height="90%" xmlns="http://www.w3.org/2000/svg" viewBox="33.85999755859376 0.01999511718749 446.2800048828125 136.03999023437498" style="background: rgba(0, 0, 0, 0) none repeat scroll 0% 0%;" preserveAspectRatio="xMidYMid"><defs><filter id="editing-jagged" x="-100%" y="-100%" width="300%" height="300%"><feTurbulence result="turb" baseFrequency="0.1" numOctaves="1" seed="1"></feTurbulence><feDisplacementMap in="SourceGraphic" in2="turb" scale="17"></feDisplacementMap></filter></defs><g filter="url(#editing-jagged)"><g transform="translate(95.06999492645264, 116.18500232696533)"><path d="M17.43-17.09L17.43-70.21L26.61-70.21L26.61-20.95L26.61-20.95Q26.61-14.06 26.03-9.47L26.03-9.47L26.03-9.47Q25.44-4.88 23.83-1.37L23.83-1.37L23.83-1.37Q20.26 6.35 9.67 11.08L9.67 11.08L6.05 5.81L6.05 5.81Q10.94 1.71 12.45 0L12.45 0L12.45 0Q13.67-1.37 14.50-2.78L14.50-2.78L14.50-2.78Q17.43-7.71 17.43-17.09L17.43-17.09ZM101.95-35.11L101.95-35.11L101.95-35.11Q101.95-17.48 93.99-8.15L93.99-8.15L93.99-8.15Q86.04 1.17 71.14 1.17L71.14 1.17L71.14 1.17Q56.40 1.17 48.36-8.13L48.36-8.13L48.36-8.13Q40.33-17.43 40.33-35.11L40.33-35.11L40.33-35.11Q40.33-52.73 48.39-62.01L48.39-62.01L48.39-62.01Q56.45-71.29 71.14-71.29L71.14-71.29L71.14-71.29Q86.04-71.29 93.99-61.94L93.99-61.94L93.99-61.94Q101.95-52.59 101.95-35.11ZM92.53-35.11L92.53-35.11L92.53-35.11Q92.53-48.68 87.18-56.15L87.18-56.15L87.18-56.15Q81.84-63.62 71.09-63.62L71.09-63.62L71.09-63.62Q60.30-63.62 55.03-56.08L55.03-56.08L55.03-56.08Q49.76-48.54 49.76-35.11L49.76-35.11L49.76-35.11Q49.76-28.52 51.00-23.32L51.00-23.32L51.00-23.32Q52.25-18.12 54.81-14.33L54.81-14.33L54.81-14.33Q57.37-10.55 61.50-8.52L61.50-8.52L61.50-8.52Q65.63-6.49 71.09-6.49L71.09-6.49L71.09-6.49Q81.84-6.49 87.18-13.99L87.18-13.99L87.18-13.99Q92.53-21.48 92.53-35.11ZM112.94-2.98L115.87-10.21L115.87-10.21Q117.87-9.42 120.09-8.74L120.09-8.74L120.09-8.74Q122.31-8.06 124.63-7.57L124.63-7.57L124.63-7.57Q126.95-7.08 129.30-6.79L129.30-6.79L129.30-6.79Q131.64-6.49 133.89-6.49L133.89-6.49L133.89-6.49Q137.74-6.49 140.87-7.37L140.87-7.37L140.87-7.37Q143.99-8.25 146.24-9.94L146.24-9.94L146.24-9.94Q148.49-11.62 149.71-14.09L149.71-14.09L149.71-14.09Q150.93-16.55 150.93-19.73L150.93-19.73L150.93-19.73Q150.93-22.90 149.78-24.93L149.78-24.93L149.78-24.93Q148.63-26.95 146.46-28.32L146.46-28.32L146.46-28.32Q144.29-29.69 141.11-30.64L141.11-30.64L141.11-30.64Q137.94-31.59 133.89-32.62L133.89-32.62L133.89-32.62Q129.39-33.79 125.61-35.23L125.61-35.23L125.61-35.23Q121.83-36.67 119.07-38.96L119.07-38.96L119.07-38.96Q116.31-41.26 114.75-44.65L114.75-44.65L114.75-44.65Q113.18-48.05 113.18-53.13L113.18-53.13L113.18-53.13Q113.18-57.28 114.84-60.64L114.84-60.64L114.84-60.64Q116.50-64.01 119.53-66.38L119.53-66.38L119.53-66.38Q122.56-68.75 126.81-70.02L126.81-70.02L126.81-70.02Q131.05-71.29 136.18-71.29L136.18-71.29L136.18-71.29Q138.67-71.29 141.26-70.97L141.26-70.97L141.26-70.97Q143.85-70.65 146.39-70.12L146.39-70.12L146.39-70.12Q148.93-69.58 151.37-68.80L151.37-68.80L151.37-68.80Q153.81-68.02 155.96-67.09L155.96-67.09L153.03-59.86L153.03-59.86Q151.27-60.55 149.44-61.23L149.44-61.23L149.44-61.23Q147.61-61.91 145.56-62.45L145.56-62.45L145.56-62.45Q143.51-62.99 141.19-63.31L141.19-63.31L141.19-63.31Q138.87-63.62 136.18-63.62L136.18-63.62L136.18-63.62Q133.50-63.62 131.05-63.04L131.05-63.04L131.05-63.04Q128.61-62.45 126.73-61.21L126.73-61.21L126.73-61.21Q124.85-59.96 123.73-57.96L123.73-57.96L123.73-57.96Q122.61-55.96 122.61-53.13L122.61-53.13L122.61-53.13Q122.61-49.95 123.75-47.92L123.75-47.92L123.75-47.92Q124.90-45.90 127.08-44.53L127.08-44.53L127.08-44.53Q129.25-43.16 132.42-42.21L132.42-42.21L132.42-42.21Q135.60-41.26 139.65-40.23L139.65-40.23L139.65-40.23Q144.14-39.06 147.92-37.62L147.92-37.62L147.92-37.62Q151.71-36.18 154.47-33.89L154.47-33.89L154.47-33.89Q157.23-31.59 158.79-28.17L158.79-28.17L158.79-28.17Q160.35-24.76 160.35-19.73L160.35-19.73L160.35-19.73Q160.35-14.40 158.37-10.47L158.37-10.47L158.37-10.47Q156.40-6.54 152.86-3.96L152.86-3.96L152.86-3.96Q149.32-1.37 144.46-0.10L144.46-0.10L144.46-0.10Q139.60 1.17 133.89 1.17L133.89 1.17L133.89 1.17Q123.10 1.17 112.94-2.98L112.94-2.98ZM221.48-42.33L221.48-70.21L230.66-70.21L230.66 0L221.48 0L221.48-34.81L183.79-34.81L183.79 0L174.61 0L174.61-70.21L183.79-70.21L183.79-42.33L221.48-42.33ZM294.63-29.59L294.63-70.21L303.81-70.21L303.81-29.64L303.81-29.64Q303.81-14.31 296.92-6.57L296.92-6.57L296.92-6.57Q290.04 1.17 275.78 1.17L275.78 1.17L275.78 1.17Q247.85 1.17 247.85-29.64L247.85-29.64L247.85-70.21L257.03-70.21L257.03-29.59L257.03-29.59Q257.03-24.22 257.96-20.14L257.96-20.14L257.96-20.14Q258.89-16.06 260.99-12.92L260.99-12.92L260.99-12.92Q263.09-9.77 266.80-8.13L266.80-8.13L266.80-8.13Q270.51-6.49 275.78-6.49L275.78-6.49L275.78-6.49Q280.08-6.49 283.37-7.59L283.37-7.59L283.37-7.59Q286.67-8.69 288.77-10.64L288.77-10.64L288.77-10.64Q290.87-12.60 292.21-15.55L292.21-15.55L292.21-15.55Q293.55-18.51 294.09-21.90L294.09-21.90L294.09-21.90Q294.63-25.29 294.63-29.59L294.63-29.59Z" fill="#444"></path></g></g><style>text {
  font-size: 64px;
  font-family: Arial Black;
  dominant-baseline: central;
  text-anchor: middle;
}</style></svg>